<?xml version="1.0" standalone="no"?>
<!DOCTYPE svg PUBLIC "-//W3C//DTD SVG 20010904//EN"
 "http://www.w3.org/TR/2001/REC-SVG-20010904/DTD/svg10.dtd">
<svg version="1.0" xmlns="http://www.w3.org/2000/svg"
 width="1025.000000pt" height="1025.000000pt" viewBox="0 0 1025.000000 1025.000000"
 preserveAspectRatio="xMidYMid meet">
<metadata>
Created by potrace 1.11, written by Peter Selinger 2001-2013
</metadata>
<g transform="translate(0.000000,1025.000000) scale(0.100000,-0.100000)"
fill="#000000" stroke="none">
<path d="M6051 9854 c-35 -38 -91 -111 -124 -161 l-61 -93 -160 0 c-259 0
-489 -34 -656 -97 -79 -29 -138 -62 -210 -118 l-55 -43 -175 19 c-233 25 -587
35 -710 20 -301 -37 -607 -132 -995 -309 -71 -32 -265 -122 -430 -199 -459
-215 -639 -287 -908 -363 -249 -71 -451 -100 -692 -100 -221 0 -458 33 -644
90 -36 11 -67 17 -69 15 -7 -6 45 -144 124 -332 415 -980 1032 -1656 1924
-2107 154 -78 459 -214 650 -289 371 -146 791 -255 1187 -308 l162 -22 5 -41
c3 -23 10 -117 16 -211 6 -93 30 -488 55 -877 61 -957 69 -1171 61 -1623 -7
-449 -53 -1386 -69 -1401 -2 -2 -57 5 -123 16 -871 149 -1658 601 -2724 1564
-259 234 -838 784 -1141 1083 -152 150 -279 273 -282 273 -4 0 -7 -53 -7 -118
l0 -119 172 -169 c504 -494 1154 -1097 1493 -1385 923 -783 1673 -1182 2462
-1309 110 -18 143 -27 143 -38 0 -21 -58 -985 -63 -1044 l-4 -48 88 0 88 0 5
43 c3 23 8 85 11 137 4 52 28 338 55 635 96 1051 116 1403 107 1835 -5 243
-39 803 -117 1935 -27 400 -56 872 -80 1300 -46 837 -26 1671 50 2135 83 503
229 853 455 1089 202 210 410 291 753 291 l122 0 -23 -47 c-199 -398 -250
-1133 -112 -1606 87 -300 240 -494 437 -553 43 -13 60 -23 63 -38 5 -25 82
-598 160 -1196 162 -1241 200 -1495 429 -2846 148 -871 183 -1252 173 -1873
-6 -347 -18 -582 -52 -1001 -22 -267 -28 -240 53 -240 l69 0 12 143 c7 78 27
279 46 447 37 331 55 539 55 636 l0 62 58 23 c254 101 543 265 1162 656 113
71 338 209 500 307 516 312 680 421 920 607 175 135 225 176 398 324 l152 130
0 114 c0 105 -1 112 -17 100 -9 -8 -91 -79 -182 -158 -454 -394 -681 -556
-1340 -956 -151 -91 -383 -235 -515 -319 -531 -336 -763 -471 -995 -577 l-126
-58 -6 262 c-12 447 -44 688 -224 1637 -173 915 -214 1162 -285 1725 -27 214
-48 390 -47 391 1 1 70 16 152 33 481 99 990 302 1397 559 781 490 1536 1366
1788 2077 16 44 34 100 40 125 6 25 13 53 16 63 5 16 -8 17 -173 17 -499 1
-980 58 -1383 165 -378 100 -652 218 -1160 501 -457 254 -613 309 -932 330
l-97 6 -6 61 c-4 34 -12 156 -18 271 l-12 210 -64 -70z m4 -789 c25 -528 27
-649 16 -900 -15 -368 -44 -795 -53 -795 -4 0 -35 27 -68 60 -106 106 -179
289 -227 570 -14 85 -18 165 -18 425 0 336 8 431 56 635 47 205 141 431 227
545 l37 50 7 -135 c4 -74 14 -279 23 -455z"/>
</g>
</svg>
