<svg width="100%" height="100%" viewBox="0 0 24 24" version="1.1" xmlns="http://www.w3.org/2000/svg" xmlns:xlink="http://www.w3.org/1999/xlink" xml:space="preserve" xmlns:serif="http://www.serif.com/" style="fill-rule:evenodd;clip-rule:evenodd;stroke-linejoin:round;stroke-miterlimit:2;">
    <path d="M3,5C3,3.895 3.895,3 5,3L19,3C20.105,3 21,3.895 21,5L21,19C21,20.105 20.105,21 19,21L5,21C3.895,21 3,20.105 3,19L3,5ZM19,5L5,5L5,19L19,19L19,5Z" style="fill:white;"/>
    <g transform="matrix(0.7,0,0,0.7,3.43571,3.43571)">
        <path d="M5.293,5.293C5.683,4.902 6.317,4.902 6.707,5.293L12,10.586L17.293,5.293C17.683,4.902 18.317,4.902 18.707,5.293C19.098,5.683 19.098,6.317 18.707,6.707L13.414,12L18.707,17.293C19.098,17.683 19.098,18.317 18.707,18.707C18.317,19.098 17.683,19.098 17.293,18.707L12,13.414L6.707,18.707C6.317,19.098 5.683,19.098 5.293,18.707C4.902,18.317 4.902,17.683 5.293,17.293L10.586,12L5.293,6.707C4.902,6.317 4.902,5.683 5.293,5.293Z" style="fill:white;"/>
    </g>
</svg>
